Coordinates
version=1
nRows=16
nColumns=40
inDegrees=yes
endheader
time	/jointset/ground_pelvis/pelvis_tilt/value	/jointset/ground_pelvis/pelvis_list/value	/jointset/ground_pelvis/pelvis_rotation/value	/jointset/ground_pelvis/pelvis_tx/value	/jointset/ground_pelvis/pelvis_ty/value	/jointset/ground_pelvis/pelvis_tz/value	/jointset/hip_r/hip_flexion_r/value	/jointset/hip_r/hip_adduction_r/value	/jointset/hip_r/hip_rotation_r/value	/jointset/walker_knee_r/knee_angle_r/value	/jointset/patellofemoral_r/knee_angle_r_beta/value	/jointset/ankle_r/ankle_angle_r/value	/jointset/subtalar_r/subtalar_angle_r/value	/jointset/mtp_r/mtp_angle_r/value	/jointset/hip_l/hip_flexion_l/value	/jointset/hip_l/hip_adduction_l/value	/jointset/hip_l/hip_rotation_l/value	/jointset/walker_knee_l/knee_angle_l/value	/jointset/patellofemoral_l/knee_angle_l_beta/value	/jointset/ankle_l/ankle_angle_l/value	/jointset/subtalar_l/subtalar_angle_l/value	/jointset/mtp_l/mtp_angle_l/value	/jointset/back/lumbar_extension/value	/jointset/back/lumbar_bending/value	/jointset/back/lumbar_rotation/value	/jointset/acromial_r/arm_flex_r/value	/jointset/acromial_r/arm_add_r/value	/jointset/acromial_r/arm_rot_r/value	/jointset/elbow_r/elbow_flex_r/value	/jointset/radioulnar_r/pro_sup_r/value	/jointset/radius_hand_r/wrist_flex_r/value	/jointset/radius_hand_r/wrist_dev_r/value	/jointset/acromial_l/arm_flex_l/value	/jointset/acromial_l/arm_add_l/value	/jointset/acromial_l/arm_rot_l/value	/jointset/elbow_l/elbow_flex_l/value	/jointset/radioulnar_l/pro_sup_l/value	/jointset/radius_hand_l/wrist_flex_l/value	/jointset/radius_hand_l/wrist_dev_l/value
      2.85000000	      6.12642431	      2.95857930	     -2.07584747	      0.94632979	      1.06120420	     -0.47498266	     21.72543196	     -2.95119080	     -2.33286464	     11.99448321	      0.20934322	      3.86529316	      0.00000000	      0.00000000	    -22.14417288	      3.23418404	     -6.90978324	     18.49063533	      0.32272247	     17.13728463	      0.00000000	      0.00000000	    -25.10759209	     -2.60906586	     -7.53542873	    -10.80158792	    -11.69019428	      1.56867883	     23.83759258	     49.45801093	      0.00000000	      0.00000000	      5.94528121	    -18.79719435	      2.24467970	     55.55890526	     59.29600274	      0.00000000	      0.00000000
      2.85833333	      6.29235933	      2.63273705	     -2.02145731	      0.94800296	      1.05953658	     -0.47454923	     21.57614688	     -2.62361111	     -2.75991609	     13.20229054	      0.23042344	      3.30337575	      0.00000000	      0.00000000	    -22.72499863	      2.78340714	     -7.05960068	     19.34137967	      0.33757076	     16.68572576	      0.00000000	      0.00000000	    -25.20224602	     -2.09595440	     -7.37157018	    -10.66583455	    -12.00656109	      1.48594091	     23.79258266	     49.42020199	      0.00000000	      0.00000000	      5.94608537	    -18.38247194	      2.07244746	     55.45096381	     59.36540233	      0.00000000	      0.00000000
      2.86666667	      6.37979892	      2.33666327	     -1.94924689	      0.94985113	      1.05783028	     -0.47418456	     21.49507568	     -2.35942868	     -3.27214444	     14.53783170	      0.25373303	      2.32767605	      0.00000000	      0.00000000	    -23.14199497	      2.34575117	     -7.16451962	     20.34170590	      0.35502974	     16.14396317	      0.00000000	      0.00000000	    -25.17563963	     -1.59889926	     -7.23529760	    -10.52703349	    -12.32754373	      1.37314462	     23.77710964	     49.38779380	      0.00000000	      0.00000000	      5.85956306	    -17.95727766	      1.91976513	     55.29399840	     59.46636354	      0.00000000	      0.00000000
      2.87500000	      6.41182537	      2.05795292	     -1.87168048	      0.95172261	      1.05616971	     -0.47372287	     21.47816285	     -2.13057557	     -3.80114238	     15.91539596	      0.27777606	      1.14091000	      0.00000000	      0.00000000	    -23.37899426	      1.90085712	     -7.24091863	     21.56304176	      0.37634608	     15.49483739	      0.00000000	      0.00000000	    -25.07208492	     -1.13095729	     -7.09631093	    -10.37950531	    -12.62503389	      1.22879710	     23.76468896	     49.36387899	      0.00000000	      0.00000000	      5.73020548	    -17.53804736	      1.75661035	     55.10248763	     59.61117215	      0.00000000	      0.00000000
      2.88333333	      6.53261661	      1.82235409	     -1.87630416	      0.95327612	      1.05493093	     -0.47292318	     21.34116718	     -1.88335834	     -3.75704017	     17.14900893	      0.29930667	      0.06850926	      0.00000000	      0.00000000	    -23.65140323	      1.55819933	     -6.96695092	     22.76223271	      0.39727591	     14.53581906	      0.00000000	      0.00000000	    -25.12577351	     -0.77144419	     -6.89943499	    -10.11747195	    -12.87155221	      1.15458596	     23.74181630	     49.35906632	      0.00000000	      0.00000000	      5.63797857	    -17.18202509	      1.68299165	     54.93773765	     59.65136209	      0.00000000	      0.00000000
      2.89166667	      6.60313046	      1.45665249	     -1.86173591	      0.95487642	      1.05387480	     -0.47195406	     21.44574059	     -1.57561865	     -4.40285644	     18.87646657	      0.32945649	     -0.67930849	      0.00000000	      0.00000000	    -23.59274477	      0.95892793	     -7.35339909	     24.57034145	      0.42883336	     13.52477834	      0.00000000	      0.00000000	    -25.08741479	     -0.30257031	     -6.62722713	     -9.88546164	    -13.11083647	      1.01446791	     23.70625981	     49.36946093	      0.00000000	      0.00000000	      5.51714497	    -16.77026218	      1.48610614	     54.67930617	     59.73805241	      0.00000000	      0.00000000
      2.90000000	      6.58739401	      0.92285457	     -1.92815514	      0.95621627	      1.05308003	     -0.47078366	     21.69497558	     -1.02871589	     -4.55927052	     20.80846703	      0.36317626	     -0.65676172	      0.00000000	      0.00000000	    -23.30778245	      0.23503340	     -7.51099262	     26.59681422	      0.46420198	     12.53810260	      0.00000000	      0.00000000	    -25.01225199	      0.31848429	     -6.25569705	     -9.53785575	    -13.35914810	      0.84783744	     23.73003247	     49.42714892	      0.00000000	      0.00000000	      5.35821332	    -16.34501403	      1.31411429	     54.38525959	     59.88685542	      0.00000000	      0.00000000
      2.90833333	      6.65013914	      0.41538573	     -2.07449978	      0.95731642	      1.05285013	     -0.46951384	     21.86408198	     -0.46117705	     -4.36532577	     22.82487582	      0.39836923	     -0.30822268	      0.00000000	      0.00000000	    -22.95413964	     -0.43433179	     -7.64672600	     28.79374328	      0.50254562	     11.18672279	      0.00000000	      0.00000000	    -25.06996390	      0.86097037	     -5.79093838	     -9.14431059	    -13.59887000	      0.70498634	     23.78799371	     49.52227213	      0.00000000	      0.00000000	      5.24847680	    -15.90885935	      1.15980159	     54.05403997	     60.04544908	      0.00000000	      0.00000000
      2.91666667	      6.50375657	     -0.05848328	     -2.29833905	      0.95830764	      1.05258656	     -0.46829105	     22.28846079	      0.12965872	     -3.80899271	     25.00409767	      0.43640383	      0.41367121	      0.00000000	      0.00000000	    -22.17338986	     -1.04515435	     -7.72948767	     31.30642149	      0.54640013	      9.75402295	      0.00000000	      0.00000000	    -24.89592932	      1.35926062	     -5.23147726	     -8.80487617	    -13.85779000	      0.40068023	     23.97160222	     49.77893394	      0.00000000	      0.00000000	      5.11275379	    -15.41473143	      0.99761284	     53.62825134	     60.43759169	      0.00000000	      0.00000000
      2.92500000	      6.70860854	     -0.56265572	     -2.48343371	      0.95926762	      1.05335558	     -0.46735753	     22.10637722	      0.69870486	     -3.47489684	     26.78025894	      0.46740369	      1.16669614	      0.00000000	      0.00000000	    -21.65390617	     -1.70198231	     -7.87447159	     33.82774532	      0.59040553	      7.55800916	      0.00000000	      0.00000000	    -25.15795530	      1.89740677	     -4.73029421	     -8.34922363	    -14.15838672	      0.21135854	     24.21642355	     49.90779366	      0.00000000	      0.00000000	      4.97682047	    -14.92503163	      0.84588469	     53.24411731	     60.61354558	      0.00000000	      0.00000000
      2.93333333	      6.81991180	     -1.02832560	     -2.66281033	      0.96020390	      1.05426496	     -0.46657551	     21.89280590	      1.19970164	     -3.23508486	     28.29329093	      0.49381108	      2.00858584	      0.00000000	      0.00000000	    -20.85879594	     -2.32690016	     -7.93758516	     36.54509857	      0.63783230	      5.12890292	      0.00000000	      0.00000000	    -25.33244678	      2.40712105	     -4.25645592	     -7.94109466	    -14.49303147	     -0.05276300	     24.62665978	     50.01410037	      0.00000000	      0.00000000	      4.79078005	    -14.42144071	      0.67457378	     52.83169777	     60.77705552	      0.00000000	      0.00000000
      2.94166667	      6.70529966	     -1.46179434	     -2.78777049	      0.96108406	      1.05499513	     -0.46589459	     21.81625735	      1.63619518	     -3.04213447	     29.60534512	      0.51671075	      2.83026948	      0.00000000	      0.00000000	    -19.63534377	     -2.96638873	     -7.83596468	     39.50032558	      0.68941074	      2.70257238	      0.00000000	      0.00000000	    -25.24625744	      2.91853409	     -3.74322838	     -7.69308478	    -14.76008974	     -0.86617666	     25.30927635	     50.27266670	      0.00000000	      0.00000000	      4.62430959	    -13.88359239	      0.56429684	     52.28978441	     61.29599702	      0.00000000	      0.00000000
      2.95000000	      7.08703491	     -1.74364257	     -2.87158437	      0.96165180	      1.05690993	     -0.46510357	     20.98092596	      1.88467686	     -2.89364391	     30.43324182	      0.53116027	      3.50282764	      0.00000000	      0.00000000	    -18.89934743	     -3.38594070	     -7.44163262	     42.21544993	      0.73679860	      0.02413217	      0.00000000	      0.00000000	    -25.78091073	      3.18371486	     -3.39723759	     -7.15048049	    -15.02879417	     -0.98249666	     25.68892970	     50.31798194	      0.00000000	      0.00000000	      4.49641373	    -13.50264856	      0.52611284	     51.91928294	     61.35112667	      0.00000000	      0.00000000
      2.95833333	      6.93823906	     -2.26014839	     -2.75275440	      0.96271235	      1.05819385	     -0.46443231	     20.51884247	      2.30519609	     -3.34401740	     30.98733363	      0.54083100	      4.51377830	      0.00000000	      0.00000000	    -17.45872173	     -4.23969788	     -7.12883916	     45.09034734	      0.78697502	     -3.13056055	      0.00000000	      0.00000000	    -25.62120023	      3.83592553	     -3.22145201	     -6.85962724	    -15.31335570	     -1.36409106	     26.59781495	     50.39911884	      0.00000000	      0.00000000	      4.10695610	    -13.11903650	      0.55834357	     51.41774610	     61.49516123	      0.00000000	      0.00000000
      2.96666667	      6.76650277	     -2.68566171	     -2.57645111	      0.96317416	      1.05952432	     -0.46359892	     20.07410961	      2.70080165	     -3.48727697	     31.44076674	      0.54874490	      5.23974486	      0.00000000	      0.00000000	    -15.79856465	     -4.96781999	     -6.46435696	     48.18947176	      0.84106495	     -5.54794313	      0.00000000	      0.00000000	    -25.47578125	      4.36457004	     -2.88513610	     -6.70343642	    -15.45034189	     -2.32391463	     27.67321029	     50.57993261	      0.00000000	      0.00000000	      4.01158442	    -12.77592421	      0.85912527	     50.65265697	     61.84468656	      0.00000000	      0.00000000
      2.97500000	      6.82981161	     -2.97636503	     -2.41743107	      0.96334570	      1.06147934	     -0.46256341	     19.25650851	      3.03688072	     -3.35480503	     31.61920734	      0.55185927	      6.19191995	      0.00000000	      0.00000000	    -14.38942319	     -5.47609596	     -5.68530289	     50.91604275	      0.88865259	     -8.46084186	      0.00000000	      0.00000000	    -25.63568091	      4.66785672	     -2.76251055	     -6.24578026	    -15.61620730	     -2.52108280	     28.48293898	     50.66878056	      0.00000000	      0.00000000	      3.81172665	    -12.59550223	      1.08933058	     50.14220921	     61.91826386	      0.00000000	      0.00000000
